<svg xmlns="http://www.w3.org/2000/svg" xmlns:xlink="http://www.w3.org/1999/xlink" width="1920" height="960" viewBox="0 0 1920 960">
  <defs>
    <style>
      .cls-1 {
        clip-path: url(#clip-cover);
      }

      .cls-2 {
        opacity: 0.102;
      }

      .cls-3 {
        fill: #0d2a47;
      }

      .cls-10, .cls-4, .cls-9 {
        fill: #00ffb0;
      }

      .cls-5 {
        fill: #fff;
      }

      .cls-6 {
        fill: url(#linear-gradient);
      }

      .cls-7, .cls-8 {
        fill: none;
        stroke: #00ffb0;
      }

      .cls-7 {
        stroke-width: 6px;
      }

      .cls-8 {
        stroke-width: 5px;
      }

      .cls-9 {
        opacity: 0.596;
      }

      .cls-10 {
        opacity: 0.299;
      }

      .cls-11 {
        fill: #f5f8f9;
      }

      .cls-12 {
        filter: url(#Rectangle_10);
      }
    </style>
    <filter id="Rectangle_10" x="1003.845" y="8.846" width="865.52" height="865.52" filterUnits="userSpaceOnUse">
      <feOffset dy="15" input="SourceAlpha"/>
      <feGaussianBlur stdDeviation="25" result="blur"/>
      <feFlood flood-color="#0d2a47" flood-opacity="0.102"/>
      <feComposite operator="in" in2="blur"/>
      <feComposite in="SourceGraphic"/>
    </filter>
    <linearGradient id="linear-gradient" x1="0.5" x2="0.5" y2="1" gradientUnits="objectBoundingBox">
      <stop offset="0" stop-color="#234567"/>
      <stop offset="1" stop-color="#0d2a47"/>
    </linearGradient>
    <clipPath id="clip-cover">
      <rect width="1920" height="960"/>
    </clipPath>
  </defs>
  <g id="cover" class="cls-1">
    <rect class="cls-11" width="1920" height="960"/>
    <g id="Group_23" data-name="Group 23" transform="translate(107.765 9.058)">
      <g id="Group_18" data-name="Group 18" class="cls-2" transform="translate(1421.498 -16.779)">
        <path id="Path_13" data-name="Path 13" class="cls-3" d="M221.684,597.034A11.431,11.431,0,1,1,210.255,585.6,11.428,11.428,0,0,1,221.684,597.034Z" transform="translate(-198.822 -585.6)"/>
        <path id="Path_14" data-name="Path 14" class="cls-3" d="M235.689,597.028A11.433,11.433,0,1,1,224.255,585.6,11.437,11.437,0,0,1,235.689,597.028Z" transform="translate(-137.813 -585.6)"/>
        <path id="Path_15" data-name="Path 15" class="cls-3" d="M249.684,597.029A11.431,11.431,0,1,1,238.255,585.6,11.428,11.428,0,0,1,249.684,597.029Z" transform="translate(-76.805 -585.595)"/>
        <path id="Path_16" data-name="Path 16" class="cls-3" d="M263.689,597.028A11.433,11.433,0,1,1,252.261,585.6,11.434,11.434,0,0,1,263.689,597.028Z" transform="translate(-15.796 -585.6)"/>
        <path id="Path_17" data-name="Path 17" class="cls-3" d="M277.688,597.029A11.433,11.433,0,1,1,266.26,585.6,11.428,11.428,0,0,1,277.688,597.029Z" transform="translate(45.208 -585.595)"/>
        <path id="Path_18" data-name="Path 18" class="cls-3" d="M291.683,597.028A11.431,11.431,0,1,1,280.255,585.6,11.426,11.426,0,0,1,291.683,597.028Z" transform="translate(106.22 -585.6)"/>
        <path id="Path_19" data-name="Path 19" class="cls-3" d="M221.684,610.107a11.431,11.431,0,1,1-11.428-11.428A11.429,11.429,0,0,1,221.684,610.107Z" transform="translate(-198.822 -528.605)"/>
        <path id="Path_20" data-name="Path 20" class="cls-3" d="M235.689,610.112a11.433,11.433,0,1,1-11.433-11.434A11.44,11.44,0,0,1,235.689,610.112Z" transform="translate(-137.813 -528.609)"/>
        <path id="Path_21" data-name="Path 21" class="cls-3" d="M249.684,610.107a11.431,11.431,0,1,1-11.428-11.428A11.429,11.429,0,0,1,249.684,610.107Z" transform="translate(-76.805 -528.605)"/>
        <path id="Path_22" data-name="Path 22" class="cls-3" d="M263.689,610.112a11.433,11.433,0,1,1-11.433-11.434A11.441,11.441,0,0,1,263.689,610.112Z" transform="translate(-15.796 -528.609)"/>
        <path id="Path_23" data-name="Path 23" class="cls-3" d="M277.693,610.107a11.436,11.436,0,1,1-11.433-11.428A11.437,11.437,0,0,1,277.693,610.107Z" transform="translate(45.208 -528.605)"/>
        <path id="Path_24" data-name="Path 24" class="cls-3" d="M291.683,610.107a11.431,11.431,0,1,1-11.428-11.428A11.426,11.426,0,0,1,291.683,610.107Z" transform="translate(106.22 -528.605)"/>
        <path id="Path_25" data-name="Path 25" class="cls-3" d="M221.684,623.19a11.431,11.431,0,1,1-11.428-11.433A11.425,11.425,0,0,1,221.684,623.19Z" transform="translate(-198.822 -471.614)"/>
        <path id="Path_26" data-name="Path 26" class="cls-3" d="M235.689,623.185a11.433,11.433,0,1,1-11.433-11.428A11.434,11.434,0,0,1,235.689,623.185Z" transform="translate(-137.813 -471.614)"/>
        <path id="Path_27" data-name="Path 27" class="cls-3" d="M249.689,623.19a11.433,11.433,0,1,1-11.439-11.433A11.433,11.433,0,0,1,249.689,623.19Z" transform="translate(-76.805 -471.614)"/>
        <path id="Path_28" data-name="Path 28" class="cls-3" d="M263.689,623.185a11.433,11.433,0,1,1-11.433-11.428A11.441,11.441,0,0,1,263.689,623.185Z" transform="translate(-15.796 -471.614)"/>
        <path id="Path_29" data-name="Path 29" class="cls-3" d="M277.689,623.181a11.433,11.433,0,1,1-11.433-11.423A11.433,11.433,0,0,1,277.689,623.181Z" transform="translate(45.212 -471.61)"/>
        <path id="Path_30" data-name="Path 30" class="cls-3" d="M291.683,623.185a11.431,11.431,0,1,1-11.428-11.428A11.423,11.423,0,0,1,291.683,623.185Z" transform="translate(106.22 -471.614)"/>
        <path id="Path_31" data-name="Path 31" class="cls-3" d="M221.684,636.269a11.431,11.431,0,1,1-11.428-11.433A11.42,11.42,0,0,1,221.684,636.269Z" transform="translate(-198.822 -414.619)"/>
        <path id="Path_32" data-name="Path 32" class="cls-3" d="M235.689,636.269a11.433,11.433,0,1,1-11.433-11.433A11.438,11.438,0,0,1,235.689,636.269Z" transform="translate(-137.813 -414.624)"/>
        <path id="Path_33" data-name="Path 33" class="cls-3" d="M249.689,636.264a11.433,11.433,0,1,1-11.439-11.428A11.438,11.438,0,0,1,249.689,636.264Z" transform="translate(-76.805 -414.619)"/>
        <path id="Path_34" data-name="Path 34" class="cls-3" d="M263.689,636.269a11.433,11.433,0,1,1-11.433-11.433A11.445,11.445,0,0,1,263.689,636.269Z" transform="translate(-15.796 -414.624)"/>
        <path id="Path_35" data-name="Path 35" class="cls-3" d="M277.689,636.26a11.433,11.433,0,1,1-11.433-11.423A11.429,11.429,0,0,1,277.689,636.26Z" transform="translate(45.212 -414.615)"/>
        <path id="Path_36" data-name="Path 36" class="cls-3" d="M291.683,636.269a11.431,11.431,0,1,1-11.428-11.433A11.437,11.437,0,0,1,291.683,636.269Z" transform="translate(106.22 -414.624)"/>
        <path id="Path_37" data-name="Path 37" class="cls-3" d="M221.684,649.349a11.431,11.431,0,1,1-11.428-11.434A11.42,11.42,0,0,1,221.684,649.349Z" transform="translate(-198.822 -357.624)"/>
        <path id="Path_38" data-name="Path 38" class="cls-3" d="M235.689,649.347a11.433,11.433,0,1,1-11.433-11.433A11.437,11.437,0,0,1,235.689,649.347Z" transform="translate(-137.813 -357.629)"/>
        <path id="Path_39" data-name="Path 39" class="cls-3" d="M249.689,649.343a11.433,11.433,0,1,1-11.439-11.428A11.437,11.437,0,0,1,249.689,649.343Z" transform="translate(-76.805 -357.624)"/>
        <path id="Path_40" data-name="Path 40" class="cls-3" d="M263.689,649.347a11.433,11.433,0,1,1-11.433-11.433A11.444,11.444,0,0,1,263.689,649.347Z" transform="translate(-15.796 -357.629)"/>
        <path id="Path_41" data-name="Path 41" class="cls-3" d="M277.689,649.343a11.433,11.433,0,1,1-11.439-11.428A11.428,11.428,0,0,1,277.689,649.343Z" transform="translate(45.212 -357.624)"/>
        <path id="Path_42" data-name="Path 42" class="cls-3" d="M291.683,649.347a11.431,11.431,0,1,1-11.428-11.433A11.436,11.436,0,0,1,291.683,649.347Z" transform="translate(106.22 -357.629)"/>
        <path id="Path_43" data-name="Path 43" class="cls-3" d="M221.689,662.422a11.433,11.433,0,1,1-11.433-11.428A11.433,11.433,0,0,1,221.689,662.422Z" transform="translate(-198.822 -300.629)"/>
        <path id="Path_44" data-name="Path 44" class="cls-3" d="M235.689,662.427a11.433,11.433,0,1,1-11.433-11.434A11.433,11.433,0,0,1,235.689,662.427Z" transform="translate(-137.813 -300.633)"/>
        <path id="Path_45" data-name="Path 45" class="cls-3" d="M249.689,662.422a11.433,11.433,0,1,1-11.439-11.428A11.428,11.428,0,0,1,249.689,662.422Z" transform="translate(-76.805 -300.629)"/>
        <path id="Path_46" data-name="Path 46" class="cls-3" d="M263.689,662.427a11.433,11.433,0,1,1-11.433-11.434A11.436,11.436,0,0,1,263.689,662.427Z" transform="translate(-15.796 -300.633)"/>
        <path id="Path_47" data-name="Path 47" class="cls-3" d="M277.689,662.427a11.433,11.433,0,1,1-11.433-11.434A11.433,11.433,0,0,1,277.689,662.427Z" transform="translate(45.212 -300.633)"/>
        <path id="Path_48" data-name="Path 48" class="cls-3" d="M291.683,662.427a11.431,11.431,0,1,1-11.428-11.434A11.425,11.425,0,0,1,291.683,662.427Z" transform="translate(106.22 -300.633)"/>
      </g>
      <g id="Group_20" data-name="Group 20" class="cls-2" transform="translate(1191.613 -16.779)">
        <path id="Path_16-2" data-name="Path 16" class="cls-3" d="M263.689,597.028A11.433,11.433,0,1,1,252.261,585.6,11.434,11.434,0,0,1,263.689,597.028Z" transform="translate(-240.822 -585.6)"/>
        <path id="Path_17-2" data-name="Path 17" class="cls-3" d="M277.688,597.029A11.433,11.433,0,1,1,266.26,585.6,11.428,11.428,0,0,1,277.688,597.029Z" transform="translate(-179.818 -585.595)"/>
        <path id="Path_18-2" data-name="Path 18" class="cls-3" d="M291.683,597.028A11.431,11.431,0,1,1,280.255,585.6,11.426,11.426,0,0,1,291.683,597.028Z" transform="translate(-118.805 -585.6)"/>
        <path id="Path_22-2" data-name="Path 22" class="cls-3" d="M263.689,610.112a11.433,11.433,0,1,1-11.433-11.434A11.441,11.441,0,0,1,263.689,610.112Z" transform="translate(-240.822 -528.609)"/>
        <path id="Path_23-2" data-name="Path 23" class="cls-3" d="M277.693,610.107a11.436,11.436,0,1,1-11.433-11.428A11.437,11.437,0,0,1,277.693,610.107Z" transform="translate(-179.818 -528.605)"/>
        <path id="Path_24-2" data-name="Path 24" class="cls-3" d="M291.683,610.107a11.431,11.431,0,1,1-11.428-11.428A11.426,11.426,0,0,1,291.683,610.107Z" transform="translate(-118.805 -528.605)"/>
        <path id="Path_28-2" data-name="Path 28" class="cls-3" d="M263.689,623.185a11.433,11.433,0,1,1-11.433-11.428A11.441,11.441,0,0,1,263.689,623.185Z" transform="translate(-240.822 -471.614)"/>
        <path id="Path_29-2" data-name="Path 29" class="cls-3" d="M277.689,623.181a11.433,11.433,0,1,1-11.433-11.423A11.433,11.433,0,0,1,277.689,623.181Z" transform="translate(-179.814 -471.61)"/>
        <path id="Path_30-2" data-name="Path 30" class="cls-3" d="M291.683,623.185a11.431,11.431,0,1,1-11.428-11.428A11.423,11.423,0,0,1,291.683,623.185Z" transform="translate(-118.805 -471.614)"/>
        <path id="Path_34-2" data-name="Path 34" class="cls-3" d="M263.689,636.269a11.433,11.433,0,1,1-11.433-11.433A11.445,11.445,0,0,1,263.689,636.269Z" transform="translate(-240.822 -414.624)"/>
        <path id="Path_35-2" data-name="Path 35" class="cls-3" d="M277.689,636.26a11.433,11.433,0,1,1-11.433-11.423A11.429,11.429,0,0,1,277.689,636.26Z" transform="translate(-179.814 -414.615)"/>
        <path id="Path_36-2" data-name="Path 36" class="cls-3" d="M291.683,636.269a11.431,11.431,0,1,1-11.428-11.433A11.437,11.437,0,0,1,291.683,636.269Z" transform="translate(-118.805 -414.624)"/>
        <path id="Path_40-2" data-name="Path 40" class="cls-3" d="M263.689,649.347a11.433,11.433,0,1,1-11.433-11.433A11.444,11.444,0,0,1,263.689,649.347Z" transform="translate(-240.822 -357.629)"/>
        <path id="Path_41-2" data-name="Path 41" class="cls-3" d="M277.689,649.343a11.433,11.433,0,1,1-11.439-11.428A11.428,11.428,0,0,1,277.689,649.343Z" transform="translate(-179.814 -357.624)"/>
        <path id="Path_42-2" data-name="Path 42" class="cls-3" d="M291.683,649.347a11.431,11.431,0,1,1-11.428-11.433A11.436,11.436,0,0,1,291.683,649.347Z" transform="translate(-118.805 -357.629)"/>
        <path id="Path_46-2" data-name="Path 46" class="cls-3" d="M263.689,662.427a11.433,11.433,0,1,1-11.433-11.434A11.436,11.436,0,0,1,263.689,662.427Z" transform="translate(-240.822 -300.633)"/>
        <path id="Path_47-2" data-name="Path 47" class="cls-3" d="M277.689,662.427a11.433,11.433,0,1,1-11.433-11.434A11.433,11.433,0,0,1,277.689,662.427Z" transform="translate(-179.814 -300.633)"/>
        <path id="Path_48-2" data-name="Path 48" class="cls-3" d="M291.683,662.427a11.431,11.431,0,1,1-11.428-11.434A11.425,11.425,0,0,1,291.683,662.427Z" transform="translate(-118.805 -300.633)"/>
      </g>
    </g>
    <path id="Path_54" data-name="Path 54" class="cls-3" d="M75.3-105.9v16.8H30.75v28.35h35.7v16.2H30.75V0H9.6V-105.9Zm48.9,21.75a46.082,46.082,0,0,1,21.825,5.1A37.327,37.327,0,0,1,161.25-64.275Q166.8-54.6,166.8-41.55T161.25-18.9A37.965,37.965,0,0,1,146.025-4.125,45.538,45.538,0,0,1,124.2,1.05a45.538,45.538,0,0,1-21.825-5.175A37.965,37.965,0,0,1,87.15-18.9Q81.6-28.5,81.6-41.55t5.55-22.725A37.327,37.327,0,0,1,102.375-79.05,46.081,46.081,0,0,1,124.2-84.15Zm0,18.3a20.286,20.286,0,0,0-15,6.225q-6.15,6.225-6.15,18.075t6.15,18.075a20.286,20.286,0,0,0,15,6.225,20.286,20.286,0,0,0,15-6.225q6.15-6.225,6.15-18.075T139.2-59.625A20.286,20.286,0,0,0,124.2-65.85ZM227.55-84.3q14.4,0,22.95,9.45t8.55,26.55V0h-21V-45.9q0-9.9-5.1-15.375T219-66.75q-9,0-14.4,5.85t-5.4,16.8V0H178.05V-83.1H199.2v16.65a26.476,26.476,0,0,1,10.875-13.125A32.327,32.327,0,0,1,227.55-84.3ZM318.3-18.15V0H307.2q-13.95,0-21.375-6.75T278.4-29.25v-36H266.85V-83.1H278.4v-20.55h21.15V-83.1h18.6v17.85h-18.6v36.3q0,6,2.4,8.4t8.1,2.4Zm61.5,1.95h35.55V0h-56.7V-105.9H379.8Zm82.8-67.95a46.081,46.081,0,0,1,21.825,5.1A37.327,37.327,0,0,1,499.65-64.275Q505.2-54.6,505.2-41.55T499.65-18.9A37.965,37.965,0,0,1,484.425-4.125,45.538,45.538,0,0,1,462.6,1.05a45.538,45.538,0,0,1-21.825-5.175A37.965,37.965,0,0,1,425.55-18.9Q420-28.5,420-41.55t5.55-22.725A37.327,37.327,0,0,1,440.775-79.05,46.082,46.082,0,0,1,462.6-84.15Zm0,18.3a20.286,20.286,0,0,0-15,6.225q-6.15,6.225-6.15,18.075t6.15,18.075a20.286,20.286,0,0,0,15,6.225,20.286,20.286,0,0,0,15-6.225q6.15-6.225,6.15-18.075T477.6-59.625A20.286,20.286,0,0,0,462.6-65.85ZM549-84.15q10.5,0,18,4.95a26.959,26.959,0,0,1,10.65,13.35V-83.1h21V0h-21V-17.4A27.358,27.358,0,0,1,567-3.975Q559.5,1.05,549,1.05a35.7,35.7,0,0,1-18.9-5.1,34.455,34.455,0,0,1-13.125-14.775Q512.25-28.5,512.25-41.55t4.725-22.725A34.455,34.455,0,0,1,530.1-79.05,35.7,35.7,0,0,1,549-84.15Zm6.6,18.45q-9.9,0-15.9,6.45t-6,17.7q0,11.25,6,17.625t15.9,6.375a20.926,20.926,0,0,0,15.825-6.525Q577.65-30.6,577.65-41.55q0-11.1-6.225-17.625A20.926,20.926,0,0,0,555.6-65.7Zm91.05-18.45q10.5,0,17.925,4.95A27.943,27.943,0,0,1,675.3-65.85V-111h21V0h-21V-17.4A28.367,28.367,0,0,1,664.575-3.975Q657.15,1.05,646.65,1.05a35.7,35.7,0,0,1-18.9-5.1,34.455,34.455,0,0,1-13.125-14.775Q609.9-28.5,609.9-41.55t4.725-22.725A34.455,34.455,0,0,1,627.75-79.05,35.7,35.7,0,0,1,646.65-84.15Zm6.6,18.45q-9.9,0-15.9,6.45t-6,17.7q0,11.25,6,17.625t15.9,6.375a20.926,20.926,0,0,0,15.825-6.525Q675.3-30.6,675.3-41.55q0-11.1-6.225-17.625A20.926,20.926,0,0,0,653.25-65.7Zm136.65,21a40.043,40.043,0,0,1-.75,7.2h-60.9q.45,11.1,6,16.35a19.3,19.3,0,0,0,13.8,5.25,20.022,20.022,0,0,0,12.225-3.6,15.945,15.945,0,0,0,6.225-9.75h22.35a35.757,35.757,0,0,1-7.05,15.6,36.842,36.842,0,0,1-13.875,10.8A44.5,44.5,0,0,1,749.1,1.05a44.233,44.233,0,0,1-21.6-5.175A36.377,36.377,0,0,1,712.8-18.9q-5.25-9.6-5.25-22.65t5.25-22.725A35.782,35.782,0,0,1,727.5-79.05a44.758,44.758,0,0,1,21.6-5.1,43.778,43.778,0,0,1,21.525,5.1,35.945,35.945,0,0,1,14.25,14.025A40.705,40.705,0,0,1,789.9-44.7Zm-21.3-2.1q.45-10.2-5.325-15.45A20.3,20.3,0,0,0,749.1-67.5a20.775,20.775,0,0,0-14.4,5.25Q728.85-57,728.25-46.8Zm53.7-20.4a34.762,34.762,0,0,1,12.3-12.525A32.676,32.676,0,0,1,851.7-84.3v22.65h-6.15q-23.25,0-23.25,21.6V0H801.15V-83.1H822.3Z" transform="translate(150 403)"/>
    <path id="Path_58" data-name="Path 58" class="cls-3" d="M9.84-42.3V0H4.38V-42.3ZM57.6-33.48a12.2,12.2,0,0,1,9.27,3.69q3.51,3.69,3.51,10.65V0H64.92V-18.66q0-4.86-2.37-7.44a8.4,8.4,0,0,0-6.51-2.58,8.945,8.945,0,0,0-6.93,2.85q-2.61,2.85-2.61,8.37V0H41.04V-18.66q0-4.86-2.4-7.44a8.422,8.422,0,0,0-6.48-2.58,9.017,9.017,0,0,0-6.99,2.85q-2.61,2.85-2.61,8.37V0H17.1V-32.94h5.46v7.5a10.7,10.7,0,0,1,4.29-5.97,12.476,12.476,0,0,1,7.11-2.07,12.526,12.526,0,0,1,7.29,2.13,11.59,11.59,0,0,1,4.41,6.27,11.907,11.907,0,0,1,4.62-6.21A12.771,12.771,0,0,1,57.6-33.48Zm37.92.12a14.931,14.931,0,0,1,7.8,2.04,14.071,14.071,0,0,1,5.37,5.88,19.633,19.633,0,0,1,1.95,9,19.447,19.447,0,0,1-1.95,8.97,14.109,14.109,0,0,1-5.37,5.85A14.931,14.931,0,0,1,95.52.42a13.417,13.417,0,0,1-8.13-2.43A12.347,12.347,0,0,1,82.8-8.4v24H77.34V-32.94H82.8v8.4a12.347,12.347,0,0,1,4.59-6.39A13.417,13.417,0,0,1,95.52-33.36ZM93.96-28.5a11.428,11.428,0,0,0-5.76,1.47,10.141,10.141,0,0,0-4.02,4.23,13.552,13.552,0,0,0-1.44,6.36,13.372,13.372,0,0,0,1.44,6.33A10.382,10.382,0,0,0,88.2-5.88a11.249,11.249,0,0,0,5.76,1.5,10.649,10.649,0,0,0,8.13-3.21q3.03-3.21,3.03-8.85t-3.03-8.85A10.649,10.649,0,0,0,93.96-28.5Zm27.78,2.22a12.115,12.115,0,0,1,4.74-5.31,14.088,14.088,0,0,1,7.44-1.89v5.94h-1.68a11.666,11.666,0,0,0-7.56,2.37q-2.94,2.37-2.94,7.83V0h-5.46V-32.94h5.46Zm31.02-7.08a17.476,17.476,0,0,1,8.49,2.04,14.6,14.6,0,0,1,5.88,5.88,18.26,18.26,0,0,1,2.13,9,18.089,18.089,0,0,1-2.13,8.97,14.648,14.648,0,0,1-5.88,5.85A17.476,17.476,0,0,1,152.76.42a17.476,17.476,0,0,1-8.49-2.04,14.845,14.845,0,0,1-5.91-5.85,17.887,17.887,0,0,1-2.16-8.97,18.055,18.055,0,0,1,2.16-9,14.794,14.794,0,0,1,5.91-5.88A17.476,17.476,0,0,1,152.76-33.36Zm0,4.8a11.414,11.414,0,0,0-5.43,1.32,9.924,9.924,0,0,0-4.02,4.05,13.641,13.641,0,0,0-1.53,6.75,13.507,13.507,0,0,0,1.53,6.69,9.924,9.924,0,0,0,4.02,4.05,11.414,11.414,0,0,0,5.43,1.32,11.414,11.414,0,0,0,5.43-1.32,9.924,9.924,0,0,0,4.02-4.05,13.507,13.507,0,0,0,1.53-6.69,13.641,13.641,0,0,0-1.53-6.75,9.924,9.924,0,0,0-4.02-4.05A11.414,11.414,0,0,0,152.76-28.56ZM187.68-5.82l10.2-27.12h5.88L190.86,0h-6.48l-12.9-32.94h5.88ZM237.9-18.3a16.26,16.26,0,0,1-.24,3H211.32q.18,5.64,3.21,8.46a10.475,10.475,0,0,0,7.41,2.82,10.71,10.71,0,0,0,6.63-2.01,8.31,8.31,0,0,0,3.27-5.37h5.82a13.836,13.836,0,0,1-2.67,6.12,13.855,13.855,0,0,1-5.37,4.2,17.784,17.784,0,0,1-7.44,1.5,16.962,16.962,0,0,1-8.4-2.04,14.416,14.416,0,0,1-5.73-5.85,18.512,18.512,0,0,1-2.07-8.97,18.688,18.688,0,0,1,2.07-9,14.37,14.37,0,0,1,5.73-5.88,16.962,16.962,0,0,1,8.4-2.04,16.582,16.582,0,0,1,8.37,2.04,14.046,14.046,0,0,1,5.46,5.46A15.367,15.367,0,0,1,237.9-18.3Zm-5.52.36a11.206,11.206,0,0,0-1.2-6.12,8.773,8.773,0,0,0-3.78-3.66,11.508,11.508,0,0,0-5.22-1.2,10.8,10.8,0,0,0-7.56,2.79q-3.06,2.79-3.3,8.19Zm26.76-15L269.82-7.02l9.9-25.92h6.06L266.22,15.6h-6.18L266.88-.54l-13.86-32.4Zm45.06-.42a17.475,17.475,0,0,1,8.49,2.04,14.6,14.6,0,0,1,5.88,5.88,18.259,18.259,0,0,1,2.13,9,18.088,18.088,0,0,1-2.13,8.97,14.648,14.648,0,0,1-5.88,5.85A17.475,17.475,0,0,1,304.2.42a17.476,17.476,0,0,1-8.49-2.04,14.845,14.845,0,0,1-5.91-5.85,17.887,17.887,0,0,1-2.16-8.97,18.055,18.055,0,0,1,2.16-9,14.793,14.793,0,0,1,5.91-5.88A17.476,17.476,0,0,1,304.2-33.36Zm0,4.8a11.414,11.414,0,0,0-5.43,1.32,9.924,9.924,0,0,0-4.02,4.05,13.641,13.641,0,0,0-1.53,6.75,13.507,13.507,0,0,0,1.53,6.69,9.924,9.924,0,0,0,4.02,4.05,11.414,11.414,0,0,0,5.43,1.32,11.414,11.414,0,0,0,5.43-1.32,9.924,9.924,0,0,0,4.02-4.05,13.507,13.507,0,0,0,1.53-6.69,13.641,13.641,0,0,0-1.53-6.75,9.924,9.924,0,0,0-4.02-4.05A11.414,11.414,0,0,0,304.2-28.56Zm51.42-4.38V0h-5.46V-7.74a11.08,11.08,0,0,1-4.47,6.15A13.2,13.2,0,0,1,338.22.54a12.225,12.225,0,0,1-9.24-3.69q-3.54-3.69-3.54-10.59v-19.2h5.46v18.66q0,4.92,2.52,7.59a8.955,8.955,0,0,0,6.84,2.67,9.352,9.352,0,0,0,7.2-2.91q2.7-2.91,2.7-8.49V-32.94Zm12.72,6.66a12.115,12.115,0,0,1,4.74-5.31,14.089,14.089,0,0,1,7.44-1.89v5.94h-1.68a11.666,11.666,0,0,0-7.56,2.37q-2.94,2.37-2.94,7.83V0h-5.46V-32.94h5.46Zm39.72-7.08a13.294,13.294,0,0,1,8.97,2.91,12.257,12.257,0,0,1,4.11,7.83h-5.22a7.559,7.559,0,0,0-2.43-4.83,7.914,7.914,0,0,0-5.55-1.89,6.847,6.847,0,0,0-4.59,1.41,4.753,4.753,0,0,0-1.65,3.81,3.935,3.935,0,0,0,1.11,2.91,7.122,7.122,0,0,0,2.76,1.68,46.043,46.043,0,0,0,4.53,1.23,44.5,44.5,0,0,1,5.91,1.71,9.258,9.258,0,0,1,3.84,2.79,7.839,7.839,0,0,1,1.59,5.16,8.108,8.108,0,0,1-3.03,6.54A12.217,12.217,0,0,1,410.34.42a15.458,15.458,0,0,1-9.6-2.82,11.248,11.248,0,0,1-4.38-7.86h5.28a6.875,6.875,0,0,0,2.61,4.86,9.417,9.417,0,0,0,6.09,1.86,6.331,6.331,0,0,0,4.41-1.44,4.858,4.858,0,0,0,1.59-3.78,4.135,4.135,0,0,0-1.14-3.06,7.475,7.475,0,0,0-2.82-1.74,41.244,41.244,0,0,0-4.62-1.26,45.086,45.086,0,0,1-5.85-1.68,8.965,8.965,0,0,1-3.72-2.67,7.475,7.475,0,0,1-1.53-4.95,8.286,8.286,0,0,1,3.06-6.69Q402.78-33.36,408.06-33.36ZM426.3-42.6a3.134,3.134,0,0,1,1.02-2.43,3.852,3.852,0,0,1,2.7-.93,3.852,3.852,0,0,1,2.7.93,3.134,3.134,0,0,1,1.02,2.43,3.134,3.134,0,0,1-1.02,2.43,3.852,3.852,0,0,1-2.7.93,3.852,3.852,0,0,1-2.7-.93A3.134,3.134,0,0,1,426.3-42.6Zm6.42,9.66V0h-5.46V-32.94ZM455.7-4.8V0h-4.08q-5.04,0-7.53-2.4t-2.49-8.04V-28.2h-4.92v-4.74h4.92v-8.22h5.52v8.22h8.52v4.74h-8.52v17.88q0,3.18,1.17,4.35t4.05,1.17Zm35.46-13.5a16.259,16.259,0,0,1-.24,3H464.58q.18,5.64,3.21,8.46a10.474,10.474,0,0,0,7.41,2.82,10.71,10.71,0,0,0,6.63-2.01,8.31,8.31,0,0,0,3.27-5.37h5.82a13.836,13.836,0,0,1-2.67,6.12,13.854,13.854,0,0,1-5.37,4.2,17.784,17.784,0,0,1-7.44,1.5,16.962,16.962,0,0,1-8.4-2.04,14.416,14.416,0,0,1-5.73-5.85,18.513,18.513,0,0,1-2.07-8.97,18.688,18.688,0,0,1,2.07-9,14.37,14.37,0,0,1,5.73-5.88,16.962,16.962,0,0,1,8.4-2.04,16.582,16.582,0,0,1,8.37,2.04,14.046,14.046,0,0,1,5.46,5.46A15.367,15.367,0,0,1,491.16-18.3Zm-5.52.36a11.206,11.206,0,0,0-1.2-6.12,8.773,8.773,0,0,0-3.78-3.66,11.508,11.508,0,0,0-5.22-1.2,10.8,10.8,0,0,0-7.56,2.79q-3.06,2.79-3.3,8.19ZM528.3-33.36a14.931,14.931,0,0,1,7.8,2.04,14.07,14.07,0,0,1,5.37,5.88,19.634,19.634,0,0,1,1.95,9,19.447,19.447,0,0,1-1.95,8.97,14.109,14.109,0,0,1-5.37,5.85A14.931,14.931,0,0,1,528.3.42a13.417,13.417,0,0,1-8.13-2.43,12.346,12.346,0,0,1-4.59-6.39v24h-5.46V-32.94h5.46v8.4a12.346,12.346,0,0,1,4.59-6.39A13.417,13.417,0,0,1,528.3-33.36Zm-1.56,4.86a11.428,11.428,0,0,0-5.76,1.47,10.141,10.141,0,0,0-4.02,4.23,13.553,13.553,0,0,0-1.44,6.36,13.372,13.372,0,0,0,1.44,6.33,10.382,10.382,0,0,0,4.02,4.23,11.249,11.249,0,0,0,5.76,1.5,10.649,10.649,0,0,0,8.13-3.21q3.03-3.21,3.03-8.85t-3.03-8.85A10.649,10.649,0,0,0,526.74-28.5Zm52.62,10.2a16.262,16.262,0,0,1-.24,3H552.78q.18,5.64,3.21,8.46a10.475,10.475,0,0,0,7.41,2.82,10.709,10.709,0,0,0,6.63-2.01,8.31,8.31,0,0,0,3.27-5.37h5.82a13.835,13.835,0,0,1-2.67,6.12,13.855,13.855,0,0,1-5.37,4.2,17.784,17.784,0,0,1-7.44,1.5,16.962,16.962,0,0,1-8.4-2.04,14.416,14.416,0,0,1-5.73-5.85,18.512,18.512,0,0,1-2.07-8.97,18.688,18.688,0,0,1,2.07-9,14.37,14.37,0,0,1,5.73-5.88,16.962,16.962,0,0,1,8.4-2.04,16.582,16.582,0,0,1,8.37,2.04,14.045,14.045,0,0,1,5.46,5.46A15.367,15.367,0,0,1,579.36-18.3Zm-5.52.36a11.206,11.206,0,0,0-1.2-6.12,8.772,8.772,0,0,0-3.78-3.66,11.508,11.508,0,0,0-5.22-1.2,10.8,10.8,0,0,0-7.56,2.79q-3.06,2.79-3.3,8.19Zm16.62-8.34a12.115,12.115,0,0,1,4.74-5.31,14.088,14.088,0,0,1,7.44-1.89v5.94h-1.68a11.666,11.666,0,0,0-7.56,2.37q-2.94,2.37-2.94,7.83V0H585V-32.94h5.46Zm30.66-14.46q-4.38-.06-6.09,1.5t-1.71,5.4v.9h7.8v4.8h-7.8V0h-5.46V-28.14h-4.74v-4.8h4.74v-1.32q0-11.82,13.26-11.28Zm19.38,7.38a17.476,17.476,0,0,1,8.49,2.04,14.6,14.6,0,0,1,5.88,5.88,18.26,18.26,0,0,1,2.13,9,18.089,18.089,0,0,1-2.13,8.97,14.648,14.648,0,0,1-5.88,5.85A17.476,17.476,0,0,1,640.5.42a17.476,17.476,0,0,1-8.49-2.04,14.845,14.845,0,0,1-5.91-5.85,17.886,17.886,0,0,1-2.16-8.97,18.055,18.055,0,0,1,2.16-9,14.794,14.794,0,0,1,5.91-5.88A17.476,17.476,0,0,1,640.5-33.36Zm0,4.8a11.413,11.413,0,0,0-5.43,1.32,9.924,9.924,0,0,0-4.02,4.05,13.641,13.641,0,0,0-1.53,6.75,13.507,13.507,0,0,0,1.53,6.69,9.924,9.924,0,0,0,4.02,4.05,11.413,11.413,0,0,0,5.43,1.32,11.413,11.413,0,0,0,5.43-1.32,9.924,9.924,0,0,0,4.02-4.05,13.507,13.507,0,0,0,1.53-6.69,13.641,13.641,0,0,0-1.53-6.75,9.924,9.924,0,0,0-4.02-4.05A11.413,11.413,0,0,0,640.5-28.56Zm27.6,2.28a12.115,12.115,0,0,1,4.74-5.31,14.088,14.088,0,0,1,7.44-1.89v5.94H678.6a11.666,11.666,0,0,0-7.56,2.37q-2.94,2.37-2.94,7.83V0h-5.46V-32.94h5.46Zm56.58-7.2a12.2,12.2,0,0,1,9.27,3.69q3.51,3.69,3.51,10.65V0H732V-18.66q0-4.86-2.37-7.44a8.4,8.4,0,0,0-6.51-2.58,8.945,8.945,0,0,0-6.93,2.85q-2.61,2.85-2.61,8.37V0h-5.46V-18.66q0-4.86-2.4-7.44a8.422,8.422,0,0,0-6.48-2.58,9.017,9.017,0,0,0-6.99,2.85q-2.61,2.85-2.61,8.37V0h-5.46V-32.94h5.46v7.5a10.7,10.7,0,0,1,4.29-5.97,12.475,12.475,0,0,1,7.11-2.07,12.526,12.526,0,0,1,7.29,2.13,11.59,11.59,0,0,1,4.41,6.27,11.907,11.907,0,0,1,4.62-6.21A12.771,12.771,0,0,1,724.68-33.48Zm33.24.12a13.535,13.535,0,0,1,8.13,2.4,12.508,12.508,0,0,1,4.65,6.42v-8.4h5.46V0H770.7V-8.4a12.508,12.508,0,0,1-4.65,6.42,13.535,13.535,0,0,1-8.13,2.4,14.931,14.931,0,0,1-7.8-2.04,14.109,14.109,0,0,1-5.37-5.85,19.447,19.447,0,0,1-1.95-8.97,19.634,19.634,0,0,1,1.95-9,14.07,14.07,0,0,1,5.37-5.88A14.931,14.931,0,0,1,757.92-33.36Zm1.56,4.86a10.575,10.575,0,0,0-8.07,3.21q-3.03,3.21-3.03,8.85t3.03,8.85a10.575,10.575,0,0,0,8.07,3.21,11.2,11.2,0,0,0,5.79-1.5,10.442,10.442,0,0,0,3.99-4.23,13.371,13.371,0,0,0,1.44-6.33,13.552,13.552,0,0,0-1.44-6.36,10.2,10.2,0,0,0-3.99-4.23A11.382,11.382,0,0,0,759.48-28.5Zm41.22-4.98a12.3,12.3,0,0,1,9.3,3.69q3.54,3.69,3.54,10.65V0h-5.46V-18.66q0-4.92-2.52-7.56a9.009,9.009,0,0,0-6.84-2.64,9.352,9.352,0,0,0-7.2,2.91q-2.7,2.91-2.7,8.49V0h-5.46V-32.94h5.46v7.8a11.221,11.221,0,0,1,4.47-6.18A12.959,12.959,0,0,1,800.7-33.48Zm34.32.12A16.03,16.03,0,0,1,845.46-30a14.233,14.233,0,0,1,5.1,9H844.8a8.421,8.421,0,0,0-3.27-5.55,10.709,10.709,0,0,0-6.63-2.01,10.605,10.605,0,0,0-5.25,1.32,9.6,9.6,0,0,0-3.81,4.05,14.342,14.342,0,0,0-1.44,6.75,14.342,14.342,0,0,0,1.44,6.75,9.6,9.6,0,0,0,3.81,4.05,10.605,10.605,0,0,0,5.25,1.32,10.6,10.6,0,0,0,6.63-2.04,8.535,8.535,0,0,0,3.27-5.58h5.76a14.153,14.153,0,0,1-5.1,9.03A16.126,16.126,0,0,1,835.02.42a16.962,16.962,0,0,1-8.4-2.04,14.416,14.416,0,0,1-5.73-5.85,18.512,18.512,0,0,1-2.07-8.97,18.688,18.688,0,0,1,2.07-9,14.37,14.37,0,0,1,5.73-5.88A16.962,16.962,0,0,1,835.02-33.36ZM886.5-18.3a16.262,16.262,0,0,1-.24,3H859.92q.18,5.64,3.21,8.46a10.475,10.475,0,0,0,7.41,2.82,10.709,10.709,0,0,0,6.63-2.01,8.31,8.31,0,0,0,3.27-5.37h5.82a13.835,13.835,0,0,1-2.67,6.12,13.855,13.855,0,0,1-5.37,4.2,17.784,17.784,0,0,1-7.44,1.5,16.962,16.962,0,0,1-8.4-2.04,14.416,14.416,0,0,1-5.73-5.85,18.512,18.512,0,0,1-2.07-8.97,18.688,18.688,0,0,1,2.07-9,14.37,14.37,0,0,1,5.73-5.88,16.962,16.962,0,0,1,8.4-2.04,16.582,16.582,0,0,1,8.37,2.04,14.045,14.045,0,0,1,5.46,5.46A15.367,15.367,0,0,1,886.5-18.3Zm-5.52.36a11.206,11.206,0,0,0-1.2-6.12A8.772,8.772,0,0,0,876-27.72a11.508,11.508,0,0,0-5.22-1.2,10.8,10.8,0,0,0-7.56,2.79q-3.06,2.79-3.3,8.19ZM896.16-6.42V0h-6.6V-6.42Z" transform="translate(150 817)"/>
    <path id="Path_53" data-name="Path 53" class="cls-3" d="M99.3,0H78.15L30.75-72V0H9.6V-105.9H30.75l47.4,72.6v-72.6H99.3Zm94.95-83.1V0H173.1V-16.8A26.476,26.476,0,0,1,162.225-3.675,32.327,32.327,0,0,1,144.75,1.05q-14.4,0-22.95-9.45t-8.55-26.4V-83.1h21v45.9q0,9.9,5.1,15.375t13.8,5.475q9.15,0,14.55-5.85T173.1-39V-83.1Zm66,83.1-18.9-26.7L225.45,0H202.2l27.45-43.35L201.6-83.1h23.7l18.45,26.25,15.9-26.25H282.9L255-40.95,283.95,0ZM335.4-18.15V0H324.3q-13.95,0-21.375-6.75T295.5-29.25v-36H283.95V-83.1H295.5v-20.55h21.15V-83.1h18.6v17.85h-18.6v36.3q0,6,2.4,8.4t8.1,2.4Z" transform="translate(150 273)"/>
    <g id="Group_13" data-name="Group 13" transform="translate(0 52)">
      <rect id="Rectangle_1" data-name="Rectangle 1" class="cls-4" width="234" height="86" rx="43" transform="translate(150 480)"/>
      <path id="Path_57" data-name="Path 57" class="cls-5" d="M-52.494-17.121l-1.17,5.343h5.031v4.992h-6.084L-56.16,0h-5.109l1.443-6.786H-67L-68.445,0h-5.109l1.443-6.786h-5.85v-4.992h6.9l1.17-5.343h-5.694v-4.992h6.747l1.443-6.747h5.109l-1.443,6.747h7.176l1.443-6.747H-50l-1.443,6.747h5.187v4.992Zm-5.109,0h-7.176l-1.17,5.343h7.176ZM-24.96-7.527a7.466,7.466,0,0,1-1.053,3.88A7.563,7.563,0,0,1-29.133-.8,10.817,10.817,0,0,1-34.164.273,13.055,13.055,0,0,1-39.39-.722a8.836,8.836,0,0,1-3.685-2.867,8.269,8.269,0,0,1-1.58-4.368h5.85a4.47,4.47,0,0,0,1.346,2.789A4.22,4.22,0,0,0-34.4-4.056a3.563,3.563,0,0,0,2.632-.916,3.194,3.194,0,0,0,.917-2.359,3.091,3.091,0,0,0-.741-2.126A5.407,5.407,0,0,0-33.462-10.8q-1.131-.507-3.12-1.17a30.842,30.842,0,0,1-4.212-1.7,7.786,7.786,0,0,1-2.788-2.438,6.983,6.983,0,0,1-1.151-4.173,6.785,6.785,0,0,1,2.555-5.6,10.5,10.5,0,0,1,6.766-2.048,10.717,10.717,0,0,1,6.962,2.106A7.949,7.949,0,0,1-25.506-20.2h-5.928a4.129,4.129,0,0,0-1.248-2.437,3.875,3.875,0,0,0-2.769-.956,3.652,3.652,0,0,0-2.457.8,2.883,2.883,0,0,0-.936,2.321,2.885,2.885,0,0,0,.722,2.008,5.506,5.506,0,0,0,1.833,1.307,30.086,30.086,0,0,0,3.022,1.131,40.185,40.185,0,0,1,4.309,1.755,7.593,7.593,0,0,1,2.827,2.457A7.22,7.22,0,0,1-24.96-7.527Zm8.58-20.007V0h-5.5V-27.534Zm33.7.312V0h-5.46V-18.993L4.875,0H.117L-6.864-18.915V0h-5.5V-27.222h6.669L2.574-6.747l8.112-20.475Zm9.516,17V0h-5.5V-27.534H31.356q4.875,0,7.351,2.34a8.327,8.327,0,0,1,2.477,6.357,8.1,8.1,0,0,1-2.555,6.279q-2.554,2.34-7.273,2.34Zm3.939-4.407q4.836,0,4.836-4.212A4.19,4.19,0,0,0,34.476-22a5.215,5.215,0,0,0-3.7-1.092H26.832v8.463ZM49.3-4.212h9.243V0H43.8V-27.534h5.5ZM66.339-23.166v7.137h9.75v4.212h-9.75v7.41h10.92V0H60.84V-27.534H77.259v4.368Z" transform="translate(267 536)"/>
      <rect id="Rectangle_1-2" data-name="Rectangle 1" class="cls-4" width="266" height="86" rx="43" transform="translate(409 480)"/>
      <path id="Path_56" data-name="Path 56" class="cls-5" d="M-68.97-16.682l-1.14,5.206h4.9v4.864h-5.928L-72.542,0H-77.52l1.406-6.612h-6.992L-84.512,0H-89.49l1.406-6.612h-5.7v-4.864h6.726l1.14-5.206h-5.548v-4.864h6.574l1.406-6.574h4.978l-1.406,6.574h6.992l1.406-6.574h4.978l-1.406,6.574h5.054v4.864Zm-4.978,0H-80.94l-1.14,5.206h6.992Zm42.294-9.842V0h-5.32V-18.506L-43.776,0h-4.636l-6.8-18.43V0h-5.358V-26.524h6.5l8.056,19.95,7.9-19.95Zm16.492-.684A13.5,13.5,0,0,1-8.341-25.46a12.68,12.68,0,0,1,4.826,4.883A14.18,14.18,0,0,1-1.748-13.49,14.286,14.286,0,0,1-3.515-6.384a12.644,12.644,0,0,1-4.826,4.9A13.5,13.5,0,0,1-15.162.266a13.5,13.5,0,0,1-6.821-1.748,12.644,12.644,0,0,1-4.826-4.9,14.286,14.286,0,0,1-1.767-7.106,14.18,14.18,0,0,1,1.767-7.087,12.68,12.68,0,0,1,4.826-4.883A13.5,13.5,0,0,1-15.162-27.208Zm0,4.94A7.938,7.938,0,0,0-19.3-21.2,7.279,7.279,0,0,0-22.1-18.145,10.2,10.2,0,0,0-23.1-13.49,10.2,10.2,0,0,0-22.1-8.835,7.279,7.279,0,0,0-19.3-5.776a7.938,7.938,0,0,0,4.142,1.064A7.938,7.938,0,0,0-11.02-5.776,7.279,7.279,0,0,0-8.227-8.835,10.2,10.2,0,0,0-7.22-13.49a10.2,10.2,0,0,0-1.007-4.655A7.279,7.279,0,0,0-11.02-21.2,7.938,7.938,0,0,0-15.162-22.268Zm40.09,8.816a14.352,14.352,0,0,1-1.672,7.03,11.636,11.636,0,0,1-4.845,4.731A15.826,15.826,0,0,1,10.868,0H1.33V-26.828h9.538a16.127,16.127,0,0,1,7.543,1.653A11.433,11.433,0,0,1,23.256-20.5,14.324,14.324,0,0,1,24.928-13.452ZM10.412-4.788a9.3,9.3,0,0,0,6.707-2.28,8.432,8.432,0,0,0,2.375-6.384,8.483,8.483,0,0,0-2.375-6.422,9.3,9.3,0,0,0-6.707-2.28H6.688V-4.788ZM33.364-22.572v6.954h9.5v4.1h-9.5v7.22H44V0h-16V-26.828H44v4.256ZM60.99,0,54.72-10.45H52.364V0H47.006V-26.828H57.228q4.674,0,7.125,2.28a7.815,7.815,0,0,1,2.451,6,7.741,7.741,0,0,1-1.691,5.092,8.344,8.344,0,0,1-4.883,2.736L66.918,0ZM52.364-14.136h4.408q4.6,0,4.6-4.066a4,4,0,0,0-1.121-3.021,4.847,4.847,0,0,0-3.477-1.083H52.364ZM92.188,0H86.83L74.822-18.24V0H69.464V-26.828h5.358L86.83-8.436V-26.828h5.358Z" transform="translate(539 535)"/>
      <rect id="Rectangle_1-3" data-name="Rectangle 1" class="cls-4" width="209" height="86" rx="43" transform="translate(701 480)"/>
      <path id="Path_55" data-name="Path 55" class="cls-5" d="M-33.133-16.243l-1.11,5.069h4.773v4.736h-5.772L-36.612,0h-4.847l1.369-6.438H-46.9L-48.267,0h-4.847l1.369-6.438h-5.55v-4.736h6.549l1.11-5.069h-5.4v-4.736h6.4l1.369-6.4h4.847l-1.369,6.4h6.808l1.369-6.4h4.847l-1.369,6.4h4.921v4.736Zm-4.847,0h-6.808l-1.11,5.069h6.808Zm29.23-9.879v4.144H-19.74v6.993h8.806v4H-19.74V0h-5.217V-26.122ZM9.75-5.254H-.721L-2.571,0H-8.084l9.62-25.826H7.493L17.075,0H11.563ZM8.344-9.213,4.5-20.239.648-9.213ZM36.908-7.141a7.083,7.083,0,0,1-1,3.682,7.175,7.175,0,0,1-2.96,2.7A10.263,10.263,0,0,1,28.176.259a12.386,12.386,0,0,1-4.958-.943,8.383,8.383,0,0,1-3.5-2.72,7.845,7.845,0,0,1-1.5-4.144h5.55A4.241,4.241,0,0,0,25.049-4.9a4,4,0,0,0,2.9,1.054,3.38,3.38,0,0,0,2.5-.869,3.03,3.03,0,0,0,.869-2.239,2.933,2.933,0,0,0-.7-2.016,5.13,5.13,0,0,0-1.776-1.277q-1.073-.481-2.96-1.11a29.261,29.261,0,0,1-4-1.609,7.387,7.387,0,0,1-2.646-2.312,6.625,6.625,0,0,1-1.091-3.959,6.437,6.437,0,0,1,2.424-5.309,9.961,9.961,0,0,1,6.419-1.943,10.167,10.167,0,0,1,6.6,2,7.541,7.541,0,0,1,2.794,5.328H30.766a3.917,3.917,0,0,0-1.184-2.312,3.676,3.676,0,0,0-2.627-.906,3.465,3.465,0,0,0-2.331.758,2.735,2.735,0,0,0-.888,2.2,2.737,2.737,0,0,0,.684,1.905,5.223,5.223,0,0,0,1.739,1.24,28.543,28.543,0,0,0,2.867,1.073,38.124,38.124,0,0,1,4.089,1.665A7.2,7.2,0,0,1,35.8-11.211,6.85,6.85,0,0,1,36.908-7.141ZM57.59-26.122v4.144H50.375V0H45.158V-21.978H37.98v-4.144Z" transform="translate(801 536)"/>
    </g>
    <path id="Polygon_17" data-name="Polygon 17" class="cls-4" d="M48.6,14.3a10,10,0,0,1,17.152,0L105.263,80.2a10,10,0,0,1-8.576,15.143H17.657A10,10,0,0,1,9.081,80.2Z" transform="translate(1680.447 746.162)"/>
    <g id="Group_24" data-name="Group 24" transform="matrix(0.966, -0.259, 0.259, 0.966, 397.197, 218.421)">
      <g class="cls-12" transform="matrix(0.97, 0.26, -0.26, 0.97, -327.13, -313.78)">
        <rect id="Rectangle_10-2" data-name="Rectangle 10" class="cls-5" width="584.219" height="584.219" rx="200" transform="matrix(0.97, -0.26, 0.26, 0.97, 1078.85, 220.05)"/>
      </g>
      <g id="Group_15" data-name="Group 15" transform="translate(774.73 357.593)">
        <path id="Path_3" data-name="Path 3" class="cls-6" d="M78.082,0H32.651L0,87.656l25.69,69.233H95.3l13.826,40.069h42.044ZM25.88,126.7,55.226,42.608,84.572,126.7Z" transform="translate(201.295 29.138)"/>
        <path id="Path_4" data-name="Path 4" class="cls-6" d="M190.481,145.824,136.372,0H84.22L0,226.1H48.265l16.2-46h91.67l10.379,30.079L172,226.1h48.264l-9.052-24.4Zm-114.035-.383,33.688-96.53,33.689,96.53Z" transform="translate(0 0)"/>
        <path id="Path_5" data-name="Path 5" class="cls-6" d="M0,1H.718L.373,0Z" transform="translate(160.58 225.096)"/>
      </g>
    </g>
    <path id="Path_49" data-name="Path 49" class="cls-7" d="M132.373,2303.5s240.567-4.735,313.853-3.121" transform="matrix(1, -0.017, 0.017, 1, -61.528, -1460.396)"/>
    <path id="Path_50" data-name="Path 50" class="cls-8" d="M0,0s240.567,4.735,313.853,3.12" transform="translate(434.7 839.49) rotate(177)"/>
    <g id="Group_28" data-name="Group 28" transform="translate(3.264 4.115)">
      <path id="Polygon_25" data-name="Polygon 25" class="cls-4" d="M23.394,7.153a5,5,0,0,1,8.577,0L50.826,38.6a5,5,0,0,1-4.288,7.571H8.827A5,5,0,0,1,4.539,38.6Z" transform="translate(590.713 197.965) rotate(90)"/>
      <path id="Polygon_27" data-name="Polygon 27" class="cls-9" d="M23.394,7.153a5,5,0,0,1,8.577,0L50.826,38.6a5,5,0,0,1-4.288,7.571H8.827A5,5,0,0,1,4.539,38.6Z" transform="translate(639.676 197.965) rotate(90)"/>
      <path id="Polygon_28" data-name="Polygon 28" class="cls-10" d="M23.394,7.153a5,5,0,0,1,8.577,0L50.826,38.6a5,5,0,0,1-4.288,7.571H8.827A5,5,0,0,1,4.539,38.6Z" transform="translate(688.639 197.965) rotate(90)"/>
    </g>
  </g>
</svg>
